<svg height="512pt" viewBox="0 0 512.00039 512" width="512pt" xmlns="http://www.w3.org/2000/svg"><path d="m384.738281 359.105469c-19.566406 22.175781-49.570312 65.421875-61.3125 65.421875-5.355469 0-21.902343-3.03125-38.308593-6.328125 27.359374-7.632813 55.027343-20.035157 59.808593-24.816407 7.121094-7.117187-6.230469-16.019531-31.148437-16.019531-24.917969 0-40.046875 6.816407-70.304688 6.816407-30.257812 0-29.515625-12.929688-57.921875-12.929688s-57.542969 25.855469-57.542969 25.855469h-51.46875v72.265625h64.417969s56.851563 19.917968 78.050781 19.917968h102.074219c28.78125 0 97.570313-118.445312 106.703125-130.183593 9.132813-11.742188-23.480468-22.175781-43.046875 0zm0 0" fill="#ffefe4"/><path d="m426.121094 349.6875c-13.816406 20.234375-77.605469 127.859375-105.039063 127.859375-10.4375 0-80.878906 0-102.074219 0-21.199218 0-78.050781-19.917969-78.050781-19.917969h-64.417969v11.742188h64.417969s56.851563 19.917968 78.050781 19.917968h102.074219c28.78125 0 97.570313-118.445312 106.703125-130.183593 2.757813-3.550781 1.6875-6.972657-1.664062-9.417969zm0 0" fill="#edd4c2"/><path d="m44.242188 383.617188h32.296874v105.671874h-32.296874zm0 0" fill="#69ebfc"/><path d="m44.242188 477.546875h32.296874v11.742187h-32.296874zm0 0" fill="#5fd4e3"/><path d="m44.242188 512h-44.242188v-151.09375h44.242188zm0 0" fill="#6770e6"/><path d="m0 500.257812h44.242188v11.742188h-44.242188zm0 0" fill="#5861c7"/><path d="m324.921875 81.976562 62.546875 14.082032 47.773438-48.136719-87.648438-38.554687c-1.382812-.609376-2.707031-1.328126-4.023438-2.058594-23.277343-12.910156-64.550781-8.410156-82.078124 11.074218l-42.832032 47.621094c-2.675781 2.972656-4.152344 6.828125-4.152344 10.824219v41.53125h-.082031v3.074219c0 9.511718 4.382813 18.488281 11.882813 24.335937l16 12.464844c1.785156 1.390625 3.953125 1.976563 6.058594 1.792969 2.128906-.167969 4.195312-1.117188 5.730468-2.816406l2.359375-2.613282c.570313-.632812 1.078125-1.304687 1.554688-1.984375l7.214843 5.621094c3.570313 2.78125 8.679688 2.332031 11.710938-1.023437l2.355469-2.613282c2.421875-2.691406 3.992187-5.867187 4.742187-9.191406l9.976563 7.605469c3.1875 2.429687 7.703125 2.035156 10.421875-.910157l2.074218-2.253906c6.132813-6.648437 6.210938-16.871094.175782-23.613281l-7.046875-7.875.046875-14.546875zm0 0" fill="#ffefe4"/><path d="m109.808594 249.867188 207.03125-207.027344 119.535156 119.53125-207.03125 207.03125zm0 0" fill="#d476e2"/><path d="m342.292969 97.925781 38.996093 38.996094c-14.054687 14.054687-14.054687 36.847656 0 50.902344l-126.492187 126.492187c-14.054687-14.058594-36.84375-14.058594-50.902344 0l-38.992187-38.996094c14.054687-14.054687 14.054687-36.847656 0-50.902343l126.488281-126.492188c14.058594 14.054688 36.847656 14.054688 50.902344 0zm0 0" fill="#b665c2"/><path d="m295.808594 234.988281c-4.183594 3.117188-8.835938 4.949219-13.972656 5.507813-2.996094.328125-6.050782.035156-9.167969-.871094-3.78125-1.097656-5.804688-5.21875-4.28125-8.847656 1.214843-2.886719 4.328125-4.578125 7.367187-3.824219.976563.242187 1.984375.402344 3.015625.476563 2.84375.222656 5.484375-.296876 7.914063-1.566407l-13.863282-13.867187-.949218.359375c-2.480469 1.121093-4.972656 2.011719-7.480469 2.664062-2.503906.660157-4.964844.972657-7.367187.949219-2.414063-.015625-4.738282-.441406-6.972657-1.273438-2.242187-.828124-4.3125-2.1875-6.210937-4.085937-1.75-1.75-3.085938-3.722656-4.011719-5.910156-.917969-2.195313-1.402344-4.488281-1.417969-6.902344-.027344-2.40625.40625-4.863281 1.3125-7.371094.894532-2.503906 2.296875-4.945312 4.191406-7.328125l-3.03125-3.03125c-1.792968-1.792968-1.792968-4.699218 0-6.496094 1.796876-1.792968 4.703126-1.792968 6.496094 0l3.175782 3.175782c2.238281-1.660156 4.445312-2.839844 6.605468-3.539063 2.167969-.707031 4.25-1.085937 6.246094-1.207031.769531-.046875 1.59375-.011719 2.429688.082031 4.152343.464844 6.664062 4.851563 5.171874 8.75-1.027343 2.675781-3.667968 4.285157-6.53125 4.148438-1.5-.074219-3.210937.09375-4.945312.742187l13.066406 13.0625c2.976563-1.21875 5.765625-2.210937 8.398438-2.992187 2.625-.777344 5.128906-1.191407 7.519531-1.242188 2.382813-.054687 4.632813.355469 6.742187 1.203125 2.125.851563 4.152344 2.253906 6.097657 4.199219 2.1875 2.191406 3.761719 4.515625 4.710937 6.964844.945313 2.460937 1.398438 4.929687 1.347656 7.410156-.050781 2.484375-.542968 4.925781-1.492187 7.335937-.953125 2.40625-2.183594 4.660157-3.695313 6.75l3.175782 3.175782c1.792968 1.792968 1.792968 4.703125 0 6.496094-1.792969 1.792968-4.703125 1.792968-6.496094 0zm-42.984375-33.363281c1.171875 1.171875 2.554687 1.804688 4.15625 1.902344 1.613281.097656 3.703125-.265625 6.277343-1.089844l-10.65625-10.65625c-1.070312 1.847656-1.601562 3.640625-1.601562 5.394531-.003906 1.757813.609375 3.234375 1.824219 4.449219zm39.269531 7.742188c-1.261719-1.265626-2.652344-1.976563-4.164062-2.113282-1.511719-.148437-3.476563.164063-5.914063.945313l11.167969 11.167969c.878906-1.753907 1.257812-3.519532 1.136718-5.296876-.128906-1.769531-.867187-3.34375-2.226562-4.703124zm0 0" fill="#ea82fa"/><path d="m264.09375 70.617188h102.1875l68.964844-22.695313h17.214844v96.269531h-53.585938c-17.375 0-34.246094-5.847656-47.894531-16.605468l-13.539063-10.667969c-6.402344-5.042969-14.316406-7.789063-22.46875-7.789063h-50.878906c-10.636719 0-19.257812-8.621094-19.257812-19.253906 0-10.636719 8.621093-19.257812 19.257812-19.257812zm0 0" fill="#ffefe4"/><path d="m214.425781 121.433594c0 .472656.058594.9375.082031 1.410156v-4.484375h-.082031zm0 0" fill="#fff7f2"/><path d="m435.246094 47.921875-5.707032-2.511719-81.945312-36.042968c-1.382812-.609376-2.707031-1.328126-4.023438-2.058594-23.277343-12.910156-64.550781-8.410156-82.078124 11.074218l-42.832032 47.621094c-2.671875 2.972656-4.152344 6.828125-4.152344 10.824219v14c0-4 1.480469-7.851563 4.152344-10.824219l42.832032-47.621094c17.527343-19.484374 58.800781-23.984374 82.078124-11.074218 1.316407.730468 2.640626 1.453125 4.023438 2.058594l77.980469 34.300781 9.671875 3.984375h17.214844v-13.730469zm0 0" fill="#fff7f2"/><path d="m467.632812 149.046875h-32.390624v-105.976563h32.390624zm0 0" fill="#69ebfc"/><path d="m435.246094 43.070312h32.386718v11.773438h-32.386718zm0 0" fill="#a1f1fc"/><path d="m467.632812 20.292969h44.367188v151.527343h-44.367188zm0 0" fill="#6770e6"/><path d="m467.632812 20.292969h44.367188v11.773437h-44.367188zm0 0" fill="#8f95e6"/></svg>